<mxfile host="app.diagrams.net" agent="Mozilla/5.0 (Windows NT 10.0; Win64; x64) AppleWebKit/537.36 (KHTML, like Gecko) Chrome/129.0.0.0 Safari/537.36" version="24.7.16">
  <diagram name="Page-1" id="6ZqFGu2P1jpvfpjX6isQ">
    <mxGraphModel dx="1050" dy="1680" grid="1" gridSize="10" guides="1" tooltips="1" connect="1" arrows="1" fold="1" page="1" pageScale="1" pageWidth="850" pageHeight="1100" math="0" shadow="0">
      <root>
        <mxCell id="0" />
        <mxCell id="1" parent="0" />
        <mxCell id="J_mNwNZOz4lIq2UNTvre-4" value="" style="edgeStyle=orthogonalEdgeStyle;rounded=0;orthogonalLoop=1;jettySize=auto;html=1;fontSize=14;" edge="1" parent="1" source="J_mNwNZOz4lIq2UNTvre-1" target="J_mNwNZOz4lIq2UNTvre-3">
          <mxGeometry relative="1" as="geometry" />
        </mxCell>
        <mxCell id="J_mNwNZOz4lIq2UNTvre-1" value="START" style="strokeWidth=2;html=1;shape=mxgraph.flowchart.terminator;whiteSpace=wrap;fontSize=14;labelBackgroundColor=none;" vertex="1" parent="1">
          <mxGeometry x="105" y="-1060" width="95" height="38" as="geometry" />
        </mxCell>
        <mxCell id="J_mNwNZOz4lIq2UNTvre-7" value="" style="edgeStyle=orthogonalEdgeStyle;rounded=0;orthogonalLoop=1;jettySize=auto;html=1;fontSize=14;" edge="1" parent="1" source="J_mNwNZOz4lIq2UNTvre-3" target="J_mNwNZOz4lIq2UNTvre-6">
          <mxGeometry relative="1" as="geometry" />
        </mxCell>
        <mxCell id="J_mNwNZOz4lIq2UNTvre-3" value="input row (int)" style="shape=parallelogram;html=1;strokeWidth=2;perimeter=parallelogramPerimeter;whiteSpace=wrap;rounded=1;arcSize=12;size=0.15000000000000002;fontSize=14;" vertex="1" parent="1">
          <mxGeometry x="80" y="-986" width="145" height="50" as="geometry" />
        </mxCell>
        <mxCell id="J_mNwNZOz4lIq2UNTvre-9" value="" style="edgeStyle=orthogonalEdgeStyle;rounded=0;orthogonalLoop=1;jettySize=auto;html=1;fontSize=14;" edge="1" parent="1" source="J_mNwNZOz4lIq2UNTvre-6" target="J_mNwNZOz4lIq2UNTvre-8">
          <mxGeometry relative="1" as="geometry" />
        </mxCell>
        <mxCell id="J_mNwNZOz4lIq2UNTvre-42" value="&lt;font style=&quot;font-size: 13px;&quot;&gt;FALSE&lt;/font&gt;" style="edgeLabel;html=1;align=center;verticalAlign=middle;resizable=0;points=[];" vertex="1" connectable="0" parent="J_mNwNZOz4lIq2UNTvre-9">
          <mxGeometry x="-0.31" y="-3" relative="1" as="geometry">
            <mxPoint as="offset" />
          </mxGeometry>
        </mxCell>
        <mxCell id="J_mNwNZOz4lIq2UNTvre-6" value="pattern == 1" style="strokeWidth=2;html=1;shape=mxgraph.flowchart.decision;whiteSpace=wrap;fontSize=14;" vertex="1" parent="1">
          <mxGeometry x="102.5" y="-896" width="100" height="100" as="geometry" />
        </mxCell>
        <mxCell id="J_mNwNZOz4lIq2UNTvre-11" value="" style="edgeStyle=orthogonalEdgeStyle;rounded=0;orthogonalLoop=1;jettySize=auto;html=1;fontSize=14;" edge="1" parent="1" source="J_mNwNZOz4lIq2UNTvre-8" target="J_mNwNZOz4lIq2UNTvre-10">
          <mxGeometry relative="1" as="geometry" />
        </mxCell>
        <mxCell id="J_mNwNZOz4lIq2UNTvre-43" value="&lt;font style=&quot;font-size: 13px;&quot;&gt;FALSE&lt;/font&gt;" style="edgeLabel;html=1;align=center;verticalAlign=middle;resizable=0;points=[];" vertex="1" connectable="0" parent="J_mNwNZOz4lIq2UNTvre-11">
          <mxGeometry x="-0.21" y="1" relative="1" as="geometry">
            <mxPoint as="offset" />
          </mxGeometry>
        </mxCell>
        <mxCell id="J_mNwNZOz4lIq2UNTvre-8" value="pattern == 2" style="strokeWidth=2;html=1;shape=mxgraph.flowchart.decision;whiteSpace=wrap;fontSize=14;" vertex="1" parent="1">
          <mxGeometry x="102.5" y="-756" width="100" height="100" as="geometry" />
        </mxCell>
        <mxCell id="J_mNwNZOz4lIq2UNTvre-13" value="" style="edgeStyle=orthogonalEdgeStyle;rounded=0;orthogonalLoop=1;jettySize=auto;html=1;fontSize=14;" edge="1" parent="1" source="J_mNwNZOz4lIq2UNTvre-10" target="J_mNwNZOz4lIq2UNTvre-12">
          <mxGeometry relative="1" as="geometry" />
        </mxCell>
        <mxCell id="J_mNwNZOz4lIq2UNTvre-44" value="&lt;font style=&quot;font-size: 13px;&quot;&gt;FALSE&lt;/font&gt;" style="edgeLabel;html=1;align=center;verticalAlign=middle;resizable=0;points=[];" vertex="1" connectable="0" parent="J_mNwNZOz4lIq2UNTvre-13">
          <mxGeometry x="-0.05" y="1" relative="1" as="geometry">
            <mxPoint as="offset" />
          </mxGeometry>
        </mxCell>
        <mxCell id="J_mNwNZOz4lIq2UNTvre-10" value="pattern == 3" style="strokeWidth=2;html=1;shape=mxgraph.flowchart.decision;whiteSpace=wrap;fontSize=14;" vertex="1" parent="1">
          <mxGeometry x="102.5" y="-616" width="100" height="100" as="geometry" />
        </mxCell>
        <mxCell id="J_mNwNZOz4lIq2UNTvre-26" style="edgeStyle=orthogonalEdgeStyle;rounded=0;orthogonalLoop=1;jettySize=auto;html=1;exitX=1;exitY=0.5;exitDx=0;exitDy=0;exitPerimeter=0;entryX=0.5;entryY=1;entryDx=0;entryDy=0;entryPerimeter=0;fontSize=14;" edge="1" parent="1" source="J_mNwNZOz4lIq2UNTvre-12">
          <mxGeometry relative="1" as="geometry">
            <mxPoint x="340" y="-656" as="targetPoint" />
          </mxGeometry>
        </mxCell>
        <mxCell id="J_mNwNZOz4lIq2UNTvre-41" value="&lt;font style=&quot;font-size: 13px;&quot;&gt;TRUE&lt;/font&gt;" style="edgeLabel;html=1;align=center;verticalAlign=middle;resizable=0;points=[];" vertex="1" connectable="0" parent="J_mNwNZOz4lIq2UNTvre-26">
          <mxGeometry x="-0.8079" y="-2" relative="1" as="geometry">
            <mxPoint x="3" y="-2" as="offset" />
          </mxGeometry>
        </mxCell>
        <mxCell id="J_mNwNZOz4lIq2UNTvre-12" value="pattern == 4" style="strokeWidth=2;html=1;shape=mxgraph.flowchart.decision;whiteSpace=wrap;fontSize=14;" vertex="1" parent="1">
          <mxGeometry x="102.5" y="-476" width="100" height="100" as="geometry" />
        </mxCell>
        <mxCell id="J_mNwNZOz4lIq2UNTvre-29" style="edgeStyle=orthogonalEdgeStyle;rounded=0;orthogonalLoop=1;jettySize=auto;html=1;exitX=1;exitY=0.5;exitDx=0;exitDy=0;exitPerimeter=0;entryX=0;entryY=0.5;entryDx=0;entryDy=0;fontSize=14;" edge="1" parent="1" source="J_mNwNZOz4lIq2UNTvre-22" target="J_mNwNZOz4lIq2UNTvre-27">
          <mxGeometry relative="1" as="geometry" />
        </mxCell>
        <mxCell id="J_mNwNZOz4lIq2UNTvre-30" style="edgeStyle=orthogonalEdgeStyle;rounded=0;orthogonalLoop=1;jettySize=auto;html=1;exitX=1;exitY=0.5;exitDx=0;exitDy=0;exitPerimeter=0;entryX=0;entryY=0.5;entryDx=0;entryDy=0;fontSize=14;" edge="1" parent="1" source="J_mNwNZOz4lIq2UNTvre-22" target="J_mNwNZOz4lIq2UNTvre-28">
          <mxGeometry relative="1" as="geometry" />
        </mxCell>
        <mxCell id="J_mNwNZOz4lIq2UNTvre-22" value="style == 1" style="strokeWidth=2;html=1;shape=mxgraph.flowchart.decision;whiteSpace=wrap;fontSize=14;" vertex="1" parent="1">
          <mxGeometry x="290" y="-756" width="100" height="100" as="geometry" />
        </mxCell>
        <mxCell id="J_mNwNZOz4lIq2UNTvre-23" style="edgeStyle=orthogonalEdgeStyle;rounded=0;orthogonalLoop=1;jettySize=auto;html=1;exitX=1;exitY=0.5;exitDx=0;exitDy=0;exitPerimeter=0;entryX=0.5;entryY=0;entryDx=0;entryDy=0;entryPerimeter=0;fontSize=14;" edge="1" parent="1" source="J_mNwNZOz4lIq2UNTvre-6">
          <mxGeometry relative="1" as="geometry">
            <mxPoint x="340" y="-756" as="targetPoint" />
          </mxGeometry>
        </mxCell>
        <mxCell id="J_mNwNZOz4lIq2UNTvre-38" value="&lt;font style=&quot;font-size: 13px;&quot;&gt;TRUE&lt;/font&gt;" style="edgeLabel;html=1;align=center;verticalAlign=middle;resizable=0;points=[];" vertex="1" connectable="0" parent="J_mNwNZOz4lIq2UNTvre-23">
          <mxGeometry x="-0.5842" y="2" relative="1" as="geometry">
            <mxPoint as="offset" />
          </mxGeometry>
        </mxCell>
        <mxCell id="J_mNwNZOz4lIq2UNTvre-24" style="edgeStyle=orthogonalEdgeStyle;rounded=0;orthogonalLoop=1;jettySize=auto;html=1;exitX=1;exitY=0.5;exitDx=0;exitDy=0;exitPerimeter=0;entryX=0;entryY=0.5;entryDx=0;entryDy=0;entryPerimeter=0;fontSize=14;" edge="1" parent="1" source="J_mNwNZOz4lIq2UNTvre-8">
          <mxGeometry relative="1" as="geometry">
            <mxPoint x="290" y="-706" as="targetPoint" />
          </mxGeometry>
        </mxCell>
        <mxCell id="J_mNwNZOz4lIq2UNTvre-39" value="&lt;font style=&quot;font-size: 13px;&quot;&gt;TRUE&lt;/font&gt;" style="edgeLabel;html=1;align=center;verticalAlign=middle;resizable=0;points=[];" vertex="1" connectable="0" parent="J_mNwNZOz4lIq2UNTvre-24">
          <mxGeometry x="-0.0103" y="-1" relative="1" as="geometry">
            <mxPoint as="offset" />
          </mxGeometry>
        </mxCell>
        <mxCell id="J_mNwNZOz4lIq2UNTvre-25" style="edgeStyle=orthogonalEdgeStyle;rounded=0;orthogonalLoop=1;jettySize=auto;html=1;exitX=1;exitY=0.5;exitDx=0;exitDy=0;exitPerimeter=0;entryX=0.5;entryY=1;entryDx=0;entryDy=0;entryPerimeter=0;fontSize=14;" edge="1" parent="1" source="J_mNwNZOz4lIq2UNTvre-10">
          <mxGeometry relative="1" as="geometry">
            <mxPoint x="340" y="-656" as="targetPoint" />
          </mxGeometry>
        </mxCell>
        <mxCell id="J_mNwNZOz4lIq2UNTvre-40" value="&lt;font style=&quot;font-size: 13px;&quot;&gt;TRUE&lt;/font&gt;" style="edgeLabel;html=1;align=center;verticalAlign=middle;resizable=0;points=[];" vertex="1" connectable="0" parent="J_mNwNZOz4lIq2UNTvre-25">
          <mxGeometry x="-0.6281" relative="1" as="geometry">
            <mxPoint as="offset" />
          </mxGeometry>
        </mxCell>
        <mxCell id="J_mNwNZOz4lIq2UNTvre-32" style="edgeStyle=orthogonalEdgeStyle;rounded=0;orthogonalLoop=1;jettySize=auto;html=1;exitX=1;exitY=0.5;exitDx=0;exitDy=0;entryX=0.5;entryY=0;entryDx=0;entryDy=0;fontSize=14;" edge="1" parent="1" source="J_mNwNZOz4lIq2UNTvre-27" target="J_mNwNZOz4lIq2UNTvre-31">
          <mxGeometry relative="1" as="geometry" />
        </mxCell>
        <mxCell id="J_mNwNZOz4lIq2UNTvre-27" value="regular_pattern()" style="verticalLabelPosition=middle;verticalAlign=middle;html=1;shape=process;whiteSpace=wrap;rounded=1;size=0.14;arcSize=6;labelPosition=center;align=center;fontSize=14;" vertex="1" parent="1">
          <mxGeometry x="450" y="-790" width="140" height="60" as="geometry" />
        </mxCell>
        <mxCell id="J_mNwNZOz4lIq2UNTvre-33" style="edgeStyle=orthogonalEdgeStyle;rounded=0;orthogonalLoop=1;jettySize=auto;html=1;exitX=1;exitY=0.5;exitDx=0;exitDy=0;entryX=0.5;entryY=1;entryDx=0;entryDy=0;fontSize=14;" edge="1" parent="1" source="J_mNwNZOz4lIq2UNTvre-28" target="J_mNwNZOz4lIq2UNTvre-31">
          <mxGeometry relative="1" as="geometry" />
        </mxCell>
        <mxCell id="J_mNwNZOz4lIq2UNTvre-28" value="regular_pattern()" style="verticalLabelPosition=middle;verticalAlign=middle;html=1;shape=process;whiteSpace=wrap;rounded=1;size=0.14;arcSize=6;labelPosition=center;align=center;fontSize=14;" vertex="1" parent="1">
          <mxGeometry x="450" y="-690" width="140" height="60" as="geometry" />
        </mxCell>
        <mxCell id="J_mNwNZOz4lIq2UNTvre-35" style="edgeStyle=orthogonalEdgeStyle;rounded=0;orthogonalLoop=1;jettySize=auto;html=1;exitX=1;exitY=0.5;exitDx=0;exitDy=0;entryX=1;entryY=0.5;entryDx=0;entryDy=0;fontSize=14;" edge="1" parent="1" source="J_mNwNZOz4lIq2UNTvre-31" target="J_mNwNZOz4lIq2UNTvre-34">
          <mxGeometry relative="1" as="geometry" />
        </mxCell>
        <mxCell id="J_mNwNZOz4lIq2UNTvre-31" value="re_run = input::re_run()" style="verticalLabelPosition=middle;verticalAlign=middle;html=1;shape=process;whiteSpace=wrap;rounded=1;size=0.14;arcSize=6;labelPosition=center;align=center;fontSize=14;" vertex="1" parent="1">
          <mxGeometry x="630" y="-740" width="140" height="60" as="geometry" />
        </mxCell>
        <mxCell id="J_mNwNZOz4lIq2UNTvre-37" value="" style="edgeStyle=orthogonalEdgeStyle;rounded=0;orthogonalLoop=1;jettySize=auto;html=1;fontSize=14;" edge="1" parent="1" source="J_mNwNZOz4lIq2UNTvre-34" target="J_mNwNZOz4lIq2UNTvre-36">
          <mxGeometry relative="1" as="geometry" />
        </mxCell>
        <mxCell id="J_mNwNZOz4lIq2UNTvre-34" value="return re_run" style="rounded=1;whiteSpace=wrap;html=1;absoluteArcSize=1;arcSize=14;strokeWidth=2;fontSize=14;" vertex="1" parent="1">
          <mxGeometry x="570" y="-600" width="110" height="56" as="geometry" />
        </mxCell>
        <mxCell id="J_mNwNZOz4lIq2UNTvre-36" value="END" style="strokeWidth=2;html=1;shape=mxgraph.flowchart.terminator;whiteSpace=wrap;fontSize=14;labelBackgroundColor=none;" vertex="1" parent="1">
          <mxGeometry x="577.5" y="-490" width="95" height="38" as="geometry" />
        </mxCell>
        <mxCell id="J_mNwNZOz4lIq2UNTvre-45" value="&lt;span style=&quot;font-size: 13px;&quot;&gt;TRUE&lt;/span&gt;" style="text;html=1;align=center;verticalAlign=middle;resizable=0;points=[];autosize=1;strokeColor=none;fillColor=none;" vertex="1" parent="1">
          <mxGeometry x="390" y="-782" width="60" height="30" as="geometry" />
        </mxCell>
        <mxCell id="J_mNwNZOz4lIq2UNTvre-46" value="&lt;span style=&quot;font-size: 13px;&quot;&gt;FALSE&lt;/span&gt;" style="text;html=1;align=center;verticalAlign=middle;resizable=0;points=[];autosize=1;strokeColor=none;fillColor=none;" vertex="1" parent="1">
          <mxGeometry x="390" y="-660" width="60" height="30" as="geometry" />
        </mxCell>
        <mxCell id="J_mNwNZOz4lIq2UNTvre-47" value="&lt;font style=&quot;font-size: 23px;&quot;&gt;gate FUNCTION&lt;/font&gt;" style="text;html=1;align=center;verticalAlign=middle;resizable=0;points=[];autosize=1;strokeColor=none;fillColor=none;" vertex="1" parent="1">
          <mxGeometry x="280" y="-1060" width="190" height="40" as="geometry" />
        </mxCell>
      </root>
    </mxGraphModel>
  </diagram>
</mxfile>
